<?xml version="1.0" standalone="no"?><!DOCTYPE svg PUBLIC "-//W3C//DTD SVG 1.1//EN" "http://www.w3.org/Graphics/SVG/1.1/DTD/svg11.dtd"><svg t="1743781709156" class="icon" viewBox="0 0 1024 1024" version="1.1" xmlns="http://www.w3.org/2000/svg" p-id="13248" width="16" height="16" xmlns:xlink="http://www.w3.org/1999/xlink"><path d="M963.4928 282.816l-124.16-124.256 22.912-22.944L730.8528 4.16l-226.304 226.208 131.392 131.488 22.4-22.4 22.048 22.08-160.512 160.448-40.512-34.24A255.808 255.808 0 0 0 243.6848 107.616 259.264 259.264 0 0 0 208.2608 112a253.408 253.408 0 0 0-67.68 22.848l48.448 48.448L295.9408 290.24l-113.12 113.152L76.1008 296.704 27.5248 248.128a255.776 255.776 0 0 0 228.064 371.2q6.24 0 12.48-0.32a254.816 254.816 0 0 0 108.864-30.336l35.168 41.024-233.504 233.376a70.176 70.176 0 0 0-0.032 99.136l40.512 40.544h0.032a58.56 58.56 0 0 0 82.656 0l231.68-231.52 180.672 210.816a100.128 100.128 0 0 0 71.744 37.632c1.888 0.128 3.744 0.192 5.6 0.192a86.496 86.496 0 0 0 61.344-24.768l33.984-33.44a86.848 86.848 0 0 0 25.728-66.528 99.84 99.84 0 0 0-36.224-72.192l-213.888-180.64 149.376-149.28 117.696 117.728 33.984-34.016a208.064 208.064 0 0 0 0.032-293.92z m-327.84-11.84l-40.64-40.64 135.808-135.68 40.608 40.64z m-237.696 221.472a192 192 0 0 1-271.2 12.928 191.04 191.04 0 0 1-62.08-129.6l91.616 91.616a37.472 37.472 0 0 0 53.024 0l150.624-150.656a37.44 37.44 0 0 0 0-52.992L268.6768 172.48a190.016 190.016 0 0 1 116.32 48.736 192.224 192.224 0 0 1 12.96 271.232z m31.904 59.616l12.256-12.032 32.32 27.328-16.96 16.96z m405.344 319.936a35.968 35.968 0 0 1 13.376 25.824 23.584 23.584 0 0 1-6.656 18.208l-34.016 33.408a23.712 23.712 0 0 1-18.304 6.368 36.704 36.704 0 0 1-26.24-14.624l-184.544-215.328 38.176-38.144z m-221.856-271.136l-45.44 45.408-30.848 30.848-45.44 45.376L260.4848 953.6l-36.608-36.64a6.848 6.848 0 0 1 0-8.64l230.016-229.888 45.408-45.376 24.256-24.256 45.44-45.44 156.64-156.576 40.96 40.96z m315.52-81.28l-71.808-71.808 0.224-0.224-131.424-131.488-0.224 0.224-22.08-22.08 90.496-90.4 124.192 124.256a144.096 144.096 0 0 1 10.592 191.552z" fill="#f4ea2a" p-id="13249"></path></svg>